# xmcd
#
# Track frame offsets:
#	150
#	20426
#	31080
#	46355
#	59824
#	71121
#	96943
#	104704
#	117210
#	127393
#	143173
#	162523
#	179347
#	195361
#	214761
#
# Disc length: 3073 seconds
#
# Revision: 1
# Processed by: cddbd v1.5.2PL0 Copyright (c) Steve Scherf et al.
# Submitted via: EZCDAudioConverter 1.3.4.1
#
DISCID=e70bff0f
DTITLE=V/A - Havana Holiday 1/3
DYEAR=1900
DGENRE=
TTITLE0=Ibrahím Ferrer  - Compositor Confundido
TTITLE1=Compay Segundo  - Te Apartas De Mi
TTITLE2=Omara Portuondo  - Vale La Pena Vivir
TTITLE3=Benny Moré - Bonito Y Sabroso
TTITLE4=Eliades Ochoa  - Las Mujeres De Mayarí
TTITLE5=Juan Formell Y Los Van Van  - Se Acabó El Querer
TTITLE6=Chucho Valdés - Niebla
TTITLE7=Rubén González  - Préstame La Bicicleta
TTITLE8=Omara Portuondo  - Me Acostumbré A Estar Sin Ti
TTITLE9=Benny Moré - Sin Razón Ni Justicia
TTITLE10=Irakere  - Romance (Juegos Prohibidos)
TTITLE11=Celeste Y Sierra Maestra  - Échale Salsita
TTITLE12=Chucho Valdés - Improvisación
TTITLE13=Juan Formell Y Los Van Van  - Nosotros Los Del Caribe
TTITLE14=Chucho Valdés - Novía Mía
EXTD=
EXTT0=
EXTT1=
EXTT2=
EXTT3=
EXTT4=
EXTT5=
EXTT6=
EXTT7=
EXTT8=
EXTT9=
EXTT10=
EXTT11=
EXTT12=
EXTT13=
EXTT14=
PLAYORDER=
